<svg viewBox="0 0 303 525" fill="none" xmlns="http://www.w3.org/2000/svg">
  <path
    d="M155.052 460.514C152.847 460.514 151.469 458.127 152.571 456.218L178.944 410.54C180.046 408.63 182.803 408.63 183.905 410.54L210.277 456.218C211.38 458.127 210.002 460.514 207.797 460.514L155.052 460.514Z"
    fill="url(#paint0_linear_1316_108074)"
  />
  <circle cx="86.5" cy="342.5" r="86.5" transform="rotate(90 86.5 342.5)" fill="url(#paint1_linear_1316_108074)" />
  <path
    d="M54.0671 194.092C60.0273 194.092 64.8589 198.923 64.8589 204.884C64.8589 210.844 60.0273 215.675 54.0671 215.675C48.107 215.675 43.2754 210.844 43.2754 204.884C43.2754 198.923 48.107 194.092 54.0671 194.092Z"
    stroke="#2E51ED"
    stroke-width="2.55078"
  />
  <path
    d="M54.0671 167.275C60.0273 167.275 64.8589 172.107 64.8589 178.067C64.8589 184.027 60.0273 188.859 54.0671 188.859C48.107 188.859 43.2754 184.027 43.2754 178.067C43.2754 172.107 48.107 167.275 54.0671 167.275Z"
    stroke="#2E51ED"
    stroke-width="2.55078"
  />
  <path
    d="M80.8831 194.092C86.8432 194.092 91.6748 198.923 91.6748 204.884C91.6748 210.844 86.8432 215.675 80.8831 215.675C74.9229 215.675 70.0913 210.844 70.0913 204.884C70.0913 198.923 74.9229 194.092 80.8831 194.092Z"
    stroke="#2E51ED"
    stroke-width="2.55078"
  />
  <path
    d="M80.8831 167.275C86.8432 167.275 91.6748 172.107 91.6748 178.067C91.6748 184.027 86.8432 188.859 80.8831 188.859C74.9229 188.859 70.0913 184.027 70.0913 178.067C70.0913 172.107 74.9229 167.275 80.8831 167.275Z"
    stroke="#2E51ED"
    stroke-width="2.55078"
  />
  <path
    d="M107.699 194.092C113.659 194.092 118.491 198.923 118.491 204.884C118.491 210.844 113.659 215.675 107.699 215.675C101.739 215.675 96.9072 210.844 96.9072 204.884C96.9072 198.923 101.739 194.092 107.699 194.092Z"
    stroke="#2E51ED"
    stroke-width="2.55078"
  />
  <path
    d="M107.699 167.275C113.659 167.275 118.491 172.107 118.491 178.067C118.491 184.027 113.659 188.859 107.699 188.859C101.739 188.859 96.9072 184.027 96.9072 178.067C96.9072 172.107 101.739 167.275 107.699 167.275Z"
    stroke="#2E51ED"
    stroke-width="2.55078"
  />
  <path
    d="M134.515 194.092C140.475 194.092 145.307 198.923 145.307 204.884C145.307 210.844 140.475 215.675 134.515 215.675C128.555 215.675 123.723 210.844 123.723 204.884C123.723 198.923 128.555 194.092 134.515 194.092Z"
    stroke="#2E51ED"
    stroke-width="2.55078"
  />
  <path
    d="M134.515 167.275C140.475 167.275 145.307 172.107 145.307 178.067C145.307 184.027 140.475 188.859 134.515 188.859C128.555 188.859 123.723 184.027 123.723 178.067C123.723 172.107 128.555 167.275 134.515 167.275Z"
    stroke="#2E51ED"
    stroke-width="2.55078"
  />
  <circle
    cx="134.595"
    cy="86.5947"
    r="23.5947"
    transform="rotate(90 134.595 86.5947)"
    fill="url(#paint2_linear_1316_108074)"
    fill-opacity="0.73"
  />
  <path
    fill-rule="evenodd"
    clip-rule="evenodd"
    d="M96.1393 473.123C90.6673 478.595 90.6673 487.467 96.1393 492.939C101.611 498.411 110.483 498.411 115.955 492.939C121.427 487.467 121.427 478.595 115.955 473.123C110.483 467.651 101.611 467.651 96.1393 473.123ZM74.1219 495.14C68.6499 500.612 68.6499 509.484 74.1219 514.956C79.5939 520.428 88.4659 520.428 93.9379 514.956C99.4099 509.484 99.4099 500.612 93.9379 495.14C88.4659 489.668 79.594 489.668 74.1219 495.14ZM74.1219 470.92C68.6499 465.448 68.6499 456.576 74.1219 451.104C79.5939 445.632 88.4659 445.632 93.9379 451.104C99.4099 456.576 99.4099 465.448 93.9379 470.92C88.4659 476.392 79.5939 476.392 74.1219 470.92ZM52.1037 473.123C46.6317 478.595 46.6317 487.467 52.1037 492.939C57.5757 498.411 66.4477 498.411 71.9197 492.939C77.3917 487.467 77.3917 478.595 71.9197 473.123C66.4477 467.651 57.5757 467.651 52.1037 473.123Z"
    fill="url(#paint3_linear_1316_108074)"
  />
  <path
    fill-rule="evenodd"
    clip-rule="evenodd"
    d="M247 246H141V299H162.2C162.201 281.438 176.438 267.2 194 267.2C211.563 267.2 225.8 281.438 225.8 299H247V246Z"
    fill="url(#paint4_linear_1316_108074)"
  />
  <path
    fill-rule="evenodd"
    clip-rule="evenodd"
    d="M181 171.08L181 185.94L194.36 185.94L194.36 171.08L181 171.08ZM181 188.94L194.36 188.94L194.36 202.3L181 202.3L181 188.94ZM197.36 188.94L197.36 202.3L212.22 202.3L212.22 188.94L197.36 188.94ZM215.22 188.94L215.22 202.3L230.08 202.3L230.08 188.94L215.22 188.94ZM247.94 202.3L233.08 202.3L233.08 188.94L247.94 188.94L247.94 202.3ZM250.94 202.3L264.3 202.3L264.3 188.94L250.94 188.94L250.94 202.3ZM250.94 185.94L264.3 185.94L264.3 171.08L250.94 171.08L250.94 185.94ZM250.94 168.08L264.3 168.08L264.3 153.22L250.94 153.22L250.94 168.08ZM247.94 153.22L247.94 168.08L233.08 168.08L233.08 153.22L247.94 153.22ZM250.94 150.22L264.3 150.22L264.3 135.36L250.94 135.36L250.94 150.22ZM247.94 135.36L247.94 150.22L233.08 150.22L233.08 135.36L247.94 135.36ZM250.94 132.36L264.3 132.36L264.3 119L250.94 119L250.94 132.36ZM247.94 119L247.94 132.36L233.08 132.36L233.08 119L247.94 119ZM247.94 171.08L247.94 185.94L233.08 185.94L233.08 171.08L247.94 171.08ZM230.08 168.08L230.08 153.22L215.22 153.22L215.22 168.08L230.08 168.08ZM230.08 150.22L230.08 135.36L215.22 135.36L215.22 150.22L230.08 150.22ZM230.08 132.36L230.08 119L215.22 119L215.22 132.36L230.08 132.36ZM230.08 185.94L230.08 171.08L215.22 171.08L215.22 185.94L230.08 185.94ZM212.22 171.08L212.22 185.94L197.36 185.94L197.36 171.08L212.22 171.08ZM212.22 153.22L212.22 168.08L197.36 168.08L197.36 153.22L212.22 153.22ZM212.22 135.36L212.22 150.22L197.36 150.22L197.36 135.36L212.22 135.36ZM212.22 119L212.22 132.36L197.36 132.36L197.36 119L212.22 119ZM194.36 150.22L194.36 135.36L181 135.36L181 150.22L194.36 150.22ZM194.36 132.36L194.36 119L181 119L181 132.36L194.36 132.36ZM194.36 168.08L194.36 153.22L181 153.22L181 168.08L194.36 168.08ZM178 202.3L178 205.3L181 205.3L264.3 205.3L267.3 205.3L267.3 202.3L267.3 119L267.3 116L264.3 116L181 116L178 116L178 119L178 202.3Z"
    fill="url(#paint5_linear_1316_108074)"
  />
  <path
    fill-rule="evenodd"
    clip-rule="evenodd"
    d="M303 0L303 80.0001L279.775 80.0001L279.775 -1.01523e-06L303 0ZM274.614 -1.24082e-06L274.614 80.0001L251.388 80.0001L251.388 -2.25606e-06L274.614 -1.24082e-06ZM246.226 80.0001L246.226 0L223 -1.01524e-06L223 80.0001L246.226 80.0001Z"
    fill="url(#paint6_linear_1316_108074)"
  />
  <defs>
    <linearGradient
      id="paint0_linear_1316_108074"
      x1="150.091"
      y1="460.514"
      x2="212.758"
      y2="424.333"
      gradientUnits="userSpaceOnUse"
    >
      <stop stop-color="#2E51ED" />
      <stop offset="1" stop-color="#2E51ED" stop-opacity="0" />
    </linearGradient>
    <linearGradient id="paint1_linear_1316_108074" x1="86.5" y1="256" x2="86.5" y2="429" gradientUnits="userSpaceOnUse">
      <stop stop-color="#32E6E2" />
      <stop offset="1" stop-color="#2E51ED" stop-opacity="0" />
    </linearGradient>
    <linearGradient
      id="paint2_linear_1316_108074"
      x1="134.595"
      y1="63"
      x2="134.595"
      y2="110.189"
      gradientUnits="userSpaceOnUse"
    >
      <stop stop-color="#32E6E2" />
      <stop offset="1" stop-color="#2E51ED" stop-opacity="0" />
    </linearGradient>
    <linearGradient
      id="paint3_linear_1316_108074"
      x1="120.06"
      y1="483.03"
      x2="19.9946"
      y2="483.232"
      gradientUnits="userSpaceOnUse"
    >
      <stop stop-color="#3AC364" />
      <stop offset="1" stop-color="#2E51ED" stop-opacity="0" />
    </linearGradient>
    <linearGradient
      id="paint4_linear_1316_108074"
      x1="247"
      y1="261.9"
      x2="98.6"
      y2="288.4"
      gradientUnits="userSpaceOnUse"
    >
      <stop stop-color="#3AC364" />
      <stop offset="1" stop-color="#2E51ED" stop-opacity="0" />
    </linearGradient>
    <linearGradient
      id="paint5_linear_1316_108074"
      x1="301.948"
      y1="81.1475"
      x2="173.255"
      y2="209.841"
      gradientUnits="userSpaceOnUse"
    >
      <stop stop-color="#64D87F" />
      <stop offset="1" stop-color="#14D8D4" stop-opacity="0" />
    </linearGradient>
    <linearGradient
      id="paint6_linear_1316_108074"
      x1="303"
      y1="40.0001"
      x2="223"
      y2="40.0001"
      gradientUnits="userSpaceOnUse"
    >
      <stop stop-color="#14D8D4" />
      <stop offset="1" stop-color="#80ABFA" stop-opacity="0" />
    </linearGradient>
  </defs>
</svg>